# Blender 4.3.2
# www.blender.org
o Plane
v -0.926988 -0.893597 -0.206826
v 1.012739 -0.947018 -0.206826
v -0.942927 1.001261 -0.206826
v 1.012739 1.052981 -0.206826
v -0.739136 0.555416 -0.206826
v -0.891976 -0.541252 -0.206826
v 0.599735 0.635298 -0.206826
v 0.646462 0.113483 -0.206826
v -0.425408 0.218795 -0.206826
v -0.609807 -0.361224 -0.206826
v 0.626068 -0.138959 -0.206826
v 0.638500 -0.695184 -0.206826
v -0.891976 -0.541252 0.206826
v -0.926988 -0.893597 0.206826
v 1.012739 -0.947018 0.206826
v 1.012739 1.052981 0.206826
v -0.942927 1.001261 0.206826
v -0.739136 0.555416 0.206826
v 0.599735 0.635298 0.206826
v 0.646462 0.113483 0.206826
v -0.425408 0.218795 0.206826
v -0.609807 -0.361224 0.206826
v 0.626068 -0.138959 0.206826
v 0.638500 -0.695184 0.206826
vn -0.0000 -0.0000 -1.0000
vn -0.0000 -0.0000 1.0000
vn 0.1770 -0.9842 -0.0000
vn -0.9960 -0.0892 -0.0000
vn -0.0264 0.9997 -0.0000
vn -0.9998 -0.0223 -0.0000
vn -0.9951 0.0989 -0.0000
vn 0.0978 0.9952 -0.0000
vn -0.9095 -0.4157 -0.0000
vn 0.1001 0.9950 -0.0000
vn -0.0275 -0.9996 -0.0000
vn -0.9530 0.3030 -0.0000
vn 0.0596 -0.9982 -0.0000
vn 1.0000 -0.0000 -0.0000
vt 0.806664 0.404030
vt 0.816861 0.530251
vt 1.000000 1.000000
vt 1.000000 0.000000
vt 0.188727 0.292897
vt 0.793498 0.791158
vt 0.000000 1.000000
vt 0.812880 0.125917
vt 0.000000 0.000000
vt 0.000000 0.149405
vt 0.280926 0.582907
vt 0.000000 0.798840
s 0
f 11/1/1 8/2/1 4/3/1
f 15/4/2 20/2/2 23/1/2
f 11/1/3 22/5/3 10/5/3
f 8/2/4 19/6/4 7/6/4
f 3/7/5 16/3/5 4/3/5
f 12/8/6 23/1/6 11/1/6
f 1/9/7 13/10/7 6/10/7
f 9/11/8 20/2/8 8/2/8
f 3/7/9 18/12/9 17/7/9
f 6/10/10 24/8/10 12/8/10
f 2/4/11 14/9/11 1/9/11
f 10/5/12 21/11/12 9/11/12
f 7/6/13 18/12/13 5/12/13
f 4/3/14 15/4/14 2/4/14
f 2/4/1 1/9/1 6/10/1
f 2/4/1 6/10/1 12/8/1
f 5/12/1 3/7/1 4/3/1
f 7/6/1 5/12/1 4/3/1
f 4/3/1 2/4/1 12/8/1
f 11/1/1 10/5/1 9/11/1
f 4/3/1 12/8/1 11/1/1
f 8/2/1 7/6/1 4/3/1
f 11/1/1 9/11/1 8/2/1
f 13/10/2 14/9/2 15/4/2
f 16/3/2 17/7/2 18/12/2
f 16/3/2 18/12/2 19/6/2
f 24/8/2 13/10/2 15/4/2
f 21/11/2 22/5/2 23/1/2
f 23/1/2 24/8/2 15/4/2
f 15/4/2 16/3/2 19/6/2
f 20/2/2 21/11/2 23/1/2
f 15/4/2 19/6/2 20/2/2
f 11/1/3 23/1/3 22/5/3
f 8/2/4 20/2/4 19/6/4
f 3/7/5 17/7/5 16/3/5
f 12/8/6 24/8/6 23/1/6
f 1/9/7 14/9/7 13/10/7
f 9/11/8 21/11/8 20/2/8
f 3/7/9 5/12/9 18/12/9
f 6/10/10 13/10/10 24/8/10
f 2/4/11 15/4/11 14/9/11
f 10/5/12 22/5/12 21/11/12
f 7/6/13 19/6/13 18/12/13
f 4/3/14 16/3/14 15/4/14
