# File generated by ImageToStl.com - Free Image and 3D model conversion tools

mtllib gordon-freeman-half-life-1.mtl

o obj1
v -1.6961 72.56800056 5.31590302
v -0.0261 72.46299717 6.04520304
v -0.0361 72.75180029 5.69100316
v 1.66390002 72.6063993 5.32690318
v -0.0761 71.51360293 6.34520319
v 2.63389993 71.64240243 5.061003
v -0.0461 70.42819948 6.64790318
v 2.32389998 69.63829781 5.12120313
v 0.36829999 68.6930005 6.73480286
v 1.97389996 68.57890296 5.5146028
v 0.1839 68.43789644 6.66000284
v 0.80379999 66.8893964 6.20600278
v 0.3039 66.93189971 7.26870305
v 0.0139 66.62979858 7.08850294
v -0.32609999 66.93189971 7.26870305
v -0.80620003 66.87940189 6.19600302
v -0.1761 68.43229646 6.67930282
v -2.12610006 68.62419867 5.53800311
v -0.50169998 68.74299592 6.73480287
v -2.51609993 69.62999703 5.15000314
v -2.48609996 71.61080148 5.06240299
v 1.66390002 72.6063993 5.32690318
v 0.0239 72.96710186 4.35880312
v -0.0361 72.75180029 5.69100316
v -1.6961 72.56800056 5.31590302
v -2.26609993 72.39409617 4.65230305
v -2.48609996 71.61080148 5.06240299
v -2.62610006 71.95749653 2.65470319
v -2.74609995 68.77850327 3.29360309
v -2.80609989 69.16809843 0.48210303
v -2.30609989 65.58910363 1.46410287
v -0.0461 69.17449954 -0.55629696
v -0.0461 65.8419037 -0.32549713
v 2.15389991 65.5382995 1.4600029
v 2.53390002 61.57220073 1.02760274
v 1.44389999 64.2509993 3.41080279
v -0.0761 60.21089919 3.65550257
v -1.46609998 64.26750168 3.42590279
v -2.60610008 61.60179897 1.01660271
v 0.89600003 63.62939812 5.06810276
v 2.00600004 65.08940105 4.53810261
v 2.49390006 66.55039963 3.44560294
v 2.6638999 68.74690232 3.29500308
v 2.6638999 69.09529875 0.48210303
v 2.5539 72.15670002 2.64940315
v 1.92390001 72.21340178 0.41870317
v -0.0161 72.90419759 2.29150328
v -0.0561 72.43659974 -0.28719684
v -2.14610004 72.2518997 0.42970315
v 2.00600004 65.08940105 4.53810261
v 1.52600002 64.33940102 5.16810269
v 0.89600003 63.62939812 5.06810276
v 0.53600001 63.53939795 5.52810279
v 0.87599999 64.4593961 6.05810304
v -0.55400002 63.53939795 5.52810279
v -0.84399998 64.44940159 6.05810304
v -1.53400004 64.35939766 5.18810267
v -1.12609994 65.50039648 5.76620293
v -2.11400008 65.14939861 4.53810261
v -2.06609988 67.26840186 5.58630284
v 0.0439 65.47219827 4.95710278
v 0.58389997 65.64800241 4.99710275
v 0.65390003 65.57289859 6.20310307
v 1.06389999 65.50730108 5.77860308
v 0.62599999 65.57939884 6.20810271
v -0.61400002 65.58940097 6.20810271
v -0.52609998 65.58070352 4.97780276
v -1.12609994 65.50039648 5.76620293
v -0.66610003 65.58249637 6.20580292
v -0.0161 65.55909702 6.25110293
v 0.2139 67.01889802 -0.11299707
v -0.1053 67.35610205 -1.42509702
v -0.0861 67.22080231 -0.05509706
v -0.33610001 67.01339722 -0.09379707
v -0.50529999 66.46610265 -1.09509714
v 0.36469999 66.47609716 -1.10509713
v -0.0753 65.56610117 -2.27509713
v -2.51609993 69.62999703 5.15000314
v -2.12610006 68.62419867 5.53800311
v -2.06609988 67.26840186 5.58630284
v -2.56609988 66.57510361 3.43190293
v -2.11400008 65.14939861 4.53810261
v -0.85399997 63.60940148 4.99810258
v 2.35389996 72.35839824 4.6317032
v 2.63389993 71.64240243 5.061003
v -0.0061 66.54509707 6.51290278
v 0.65390003 65.57289859 6.20310307
v -0.0161 65.55909702 6.25110293
v -0.66610003 65.58249637 6.20580292
v 1.06389999 65.50730108 5.77860308
v 1.9339 67.24639868 5.59040316
v 0.62599999 65.57939884 6.20810271
v 1.9339 67.24639868 5.59040316
v 1.97389996 68.57890296 5.5146028
v 2.32389998 69.63829781 5.12120313
v -0.98610002 65.47479988 5.23870278
v -0.3761 65.48100255 5.97910309
v -0.9461 65.67939735 5.28690291
v -0.35609999 65.69940159 5.97930289
v 0.4039 65.48789952 5.99140263
v 0.39390001 65.69940159 5.97930289
v 0.9339 65.67939735 5.28690291
v -0.954 65.51940132 5.22810269
v -0.384 65.49939701 6.02810288
v -0.99400002 65.72940041 5.07810308
v -0.414 65.8094022 6.08810283
v 0.40599999 65.49939701 6.02810288
v 0.51599997 65.8094022 6.07810308
v 0.986 65.72940041 5.07810308
v -0.61400002 65.58940097 6.20810271
v -0.85399997 63.60940148 4.99810258
v 0.53600001 63.53939795 5.52810279
v -0.55400002 63.53939795 5.52810279
v 0.89600003 63.62939812 5.06810276
v -0.85399997 63.60940148 4.99810258
v -0.0861 63.08769999 -2.35599719
v 0.97390002 65.47479988 5.23870278
v 0.95599997 65.51940132 5.21810293
vn -0.4105 0.6998 0.5846
vn -0.0087 0.5611 0.8277
vn -0.0131 0.91022 0.41391
vn 0.38548 0.71887 0.57847
vn -0.0181 0.25079 0.96787
vn 0.80136 0.20249 0.56287
vn -0.0035 0.1457 0.98932
vn 0.76391 -0.0323 0.64451
vn 0.35391 -0.1053 0.92933
vn 0.71163 -0.1223 0.69183
vn 0.32191 0.0085 0.94673
vn 0.63538 -0.24419 0.73257
vn 0.48401 -0.22091 0.84672
vn 0.002 -0.91357 0.40668
vn -0.37679 -0.0883 0.92208
vn -0.61702 -0.25401 0.74483
vn -0.4079 -0.0335 0.91241
vn -0.70333 -0.15871 0.69293
vn -0.27511 -0.1105 0.95504
vn -0.78185 0.0126 0.62334
vn -0.81161 0.2067 0.54641
vn -0.0089 0.99987 -0.0138
vn -0.61643 0.77853 0.11791
vn -0.81102 0.58471 -0.0189
vn -0.99166 -0.0623 0.1128
vn -0.87653 -0.0301 -0.48041
vn -0.92387 -0.14859 -0.35269
vn 0.002 -0.0581 -0.99831
vn 0.0004 0.2077 -0.97819
vn 0.91776 -0.14119 -0.37118
vn 0.9925 0.0929 -0.0794
vn 0.75889 -0.61339 0.2187
vn -0.003 -0.1837 0.98298
vn -0.81139 -0.49659 0.3083
vn -0.99363 0.0913 -0.0661
vn 0.41721 -0.90473 -0.086
vn 0.89571 -0.38071 0.2297
vn 0.97087 -0.22849 0.0722
vn 0.98957 -0.0768 0.1219
vn 0.86157 -0.0295 -0.50678
vn 0.79108 0.60809 -0.0665
vn 0.53017 0.58957 -0.60937
vn -0.0141 0.99741 -0.0706
vn 0.0119 0.68502 -0.72842
vn -0.55341 0.59911 -0.57861
vn 0.80188 -0.40769 0.43679
vn 0.3767 -0.7954 0.4748
vn 0.34029 -0.27899 0.89798
vn -0.25769 -0.85218 0.45539
vn -0.45308 -0.26209 0.85207
vn -0.7825 -0.435 0.4455
vn -0.67489 -0.0994 0.73119
vn -0.88349 -0.40349 0.238
vn -0.80378 -0.1186 0.58299
vn 0.0833 -0.99088 0.1059
vn -0.17821 -0.96353 0.19961
vn 0.0417 -0.99889 -0.0218
vn -0.43739 0.87847 0.19229
vn 0.0256 0.99562 -0.0899
vn 0.0185 0.9995 -0.0255
vn -0.13389 0.96556 -0.22309
vn -0.27461 -0.95192 -0.1358
vn -0.0081 -0.99772 0.067
vn 0.8162 -0.2512 0.5203
vn -0.0567 0.94304 -0.32781
vn -0.0634 0.9933 0.0966
vn -0.93408 0.1772 0.30999
vn -0.61447 -0.69397 0.37528
vn 0.85291 -0.46871 0.2299
vn -0.0575 -0.61871 -0.78351
vn -0.97028 -0.2326 0.0667
vn -0.39988 -0.90846 -0.1216
vn 0.58183 0.80654 0.10471
vn -0.0074 -0.5072 0.8618
vn 0.40092 -0.12721 0.90724
vn -0.004 -0.25529 0.96686
vn -0.3926 -0.1218 0.91161
vn 0.70842 -0.0766 0.70162
vn 0.80463 -0.1061 0.58422
vn 0.37391 -0.0371 0.92672
vn -0.75851 0.0463 0.65001
vn -0.5516 0.0368 0.8333
vn -0.2752 0.0385 0.96061
vn 0.4314 0.0665 0.89971
vn 0.78219 0.0551 0.62059
vn -0.77187 0.27089 0.57518
vn -0.61359 -0.0317 0.78899
vn -0.82709 0.0494 0.55989
vn -0.3128 -0.1916 0.93029
vn 0.4754 -0.1287 0.8703
vn 0.48271 -0.29551 0.82442
vn 0.85036 -0.0534 0.52348
vn -0.227 -0.0789 0.97069
vn -0.0076 0.59247 -0.80556
vn 0.78978 0.25099 0.55969
vt 0.5391 0.1328
vt 0.7344 0.1562
vt 0.7266 0.1172
vt 0.9375 0.1172
vt 0.7266 0.1484
vt 0.9688 0.2266
vt 0.7266 0.2969
vt 0.9141 0.3125
vt 0.75 0.3906
vt 0.9219 0.4141
vt 0.7422 0.4219
vt 0.7813 0.5625
vt 0.7422 0.5547
vt 0.7266 0.5781
vt 0.7031 0.5547
vt 0.6641 0.5547
vt 0.7188 0.4219
vt 0.5391 0.4062
vt 0.6953 0.3906
vt 0.5469 0.3203
vt 0.5078 0.2187
vt 0.0391 0.1797
vt 0.0938 0.1484
vt 0.0156 0.1641
vt 0.0703 0.1875
vt 0.0469 0.2422
vt 0.1953 0.1797
vt 0.0859 0.3594
vt 0.2813 0.3359
vt 0.2188 0.5312
vt 0.3828 0.3437
vt 0.3906 0.5234
vt 0.2813 0.7422
vt 0.1484 0.6562
vt 0.1563 0.7969
vt 0.1406 0.6484
vt 0 0.7109
vt 0.0391 0.5547
vt 0.0781 0.4922
vt 0.2813 0.3437
vt 0.1953 0.1719
vt 0.3125 0.1641
vt 0.2109 0.1406
vt 0.375 0.125
vt 0.3125 0.1562
vt 0.9063 0.6641
vt 0.8359 0.7422
vt 0.8203 0.8125
vt 0.8047 0.8281
vt 0.8125 0.75
vt 0.6641 0.8281
vt 0.6641 0.75
vt 0.6172 0.75
vt 0.6328 0.6875
vt 0.5391 0.6953
vt 0.5313 0.5469
vt 0.7266 0.6641
vt 0.7813 0.6641
vt 0.7891 0.6719
vt 0.8281 0.6797
vt 0.7813 0.6719
vt 0.6719 0.6719
vt 0.6797 0.6719
vt 0.6328 0.6797
vt 0.3516 0.4531
vt 0.3984 0.4297
vt 0.3359 0.4453
vt 0.3438 0.4531
vt 0.3906 0.4766
vt 0.375 0.4609
vt 0.0313 0.375
vt 0.0234 0.4453
vt 0.0313 0.4687
vt 0.0078 0.7109
vt 0.0469 0.2344
vt 0.7188 0.5859
vt 0.7891 0.6875
vt 0.7266 0.6875
vt 0.6641 0.6875
vt 0.8203 0.6875
vt 0.9141 0.5234
vt 0.6406 0.6797
vt 0.6953 0.6719
vt 0.6484 0.6719
vt 0.6953 0.6641
vt 0.7656 0.6719
vt 0.7656 0.6641
vt 0.8125 0.6719
vt 0.6406 0.6641
vt 0.6875 0.6562
vt 0.7734 0.6641
vt 0.8203 0.6719
vt 0.6719 0.6875
vt 0.6484 0.8203
vt 0.7813 0.7578
vt 0.6797 0.7578
vt 0.6484 0.75
vt 0.3984 0.6406
vt 0.8125 0.6797
usemtl mat1
f 1/1/1 2/2/2 3/3/3
f 3/3/3 2/2/2 4/4/4
f 2/2/2 5/5/5 4/4/4
f 4/4/4 5/5/5 6/6/6
f 5/5/5 7/7/7 6/6/6
f 6/6/6 7/7/7 8/8/8
f 7/7/7 9/9/9 8/8/8
f 8/8/8 9/9/9 10/10/10
f 9/9/9 11/11/11 10/10/10
f 10/10/10 11/11/11 12/12/12
f 11/11/11 13/13/13 12/12/12
f 12/12/12 13/13/13 14/14/14
f 13/13/13 15/15/15 14/14/14
f 14/14/14 15/15/15 16/16/16
f 15/15/15 17/17/17 16/16/16
f 16/16/16 17/17/17 18/18/18
f 17/17/17 19/19/19 18/18/18
f 18/18/18 19/19/19 20/20/20
f 19/19/19 7/7/7 20/20/20
f 20/20/20 7/7/7 21/21/21
f 7/7/7 5/5/5 21/21/21
f 21/21/21 5/5/5 1/1/1
f 5/5/5 2/2/2 1/1/1
f 22/22/4 23/23/22 24/24/3
f 24/24/3 23/23/22 25/22/1
f 23/23/22 26/25/23 25/22/1
f 25/22/1 26/25/23 27/26/21
f 26/25/23 28/27/24 27/26/21
f 27/26/21 28/27/24 29/28/25
f 28/27/24 30/29/26 29/28/25
f 29/28/25 30/29/26 31/30/27
f 30/29/26 32/31/28 31/30/27
f 31/30/27 32/31/28 33/32/29
f 32/31/28 34/30/30 33/32/29
f 33/32/29 34/30/30 35/33/31
f 34/30/30 36/34/32 35/33/31
f 35/33/31 36/34/32 37/35/33
f 36/34/32 38/36/34 37/35/33
f 37/35/33 38/36/34 39/33/35
f 38/36/34 31/30/27 39/33/35
f 39/33/35 31/30/27 33/32/29
f 40/37/36 36/34/32 41/38/37
f 41/38/37 36/34/32 42/39/38
f 36/34/32 34/30/30 42/39/38
f 42/39/38 34/30/30 43/28/39
f 34/30/30 44/40/40 43/28/39
f 43/28/39 44/40/40 45/41/41
f 44/40/40 46/42/42 45/41/41
f 45/41/41 46/42/42 47/43/43
f 46/42/42 48/44/44 47/43/43
f 47/43/43 48/44/44 49/45/45
f 48/44/44 32/31/28 49/45/45
f 49/45/45 32/31/28 30/29/26
f 50/46/37 51/47/46 52/48/36
f 52/48/36 51/47/46 53/49/47
f 51/47/46 54/50/48 53/49/47
f 53/49/47 54/50/48 55/51/49
f 54/50/48 56/52/50 55/51/49
f 55/51/49 56/52/50 57/53/51
f 56/52/50 58/54/52 57/53/51
f 57/53/51 58/54/52 59/55/53
f 58/54/52 60/56/54 59/55/53
f 61/57/55 62/58/56 63/59/57
f 61/57/55 64/60/58 62/58/56
f 61/57/55 65/61/59 64/60/58
f 61/57/55 66/62/60 65/61/59
f 61/57/55 67/63/61 66/62/60
f 61/57/55 68/64/62 67/63/61
f 61/57/55 69/62/63 68/64/62
f 61/57/55 70/57/63 69/62/63
f 61/57/55 63/59/57 70/57/63
f 71/65/64 72/66/65 73/67/66
f 73/67/66 72/66/65 74/68/67
f 72/66/65 75/69/68 74/68/67
f 74/68/67 75/69/68 71/65/64
f 75/69/68 76/69/69 71/65/64
f 71/65/64 76/69/69 72/66/65
f 76/69/69 77/70/70 72/66/65
f 72/66/65 77/70/70 75/69/68
f 77/70/70 76/69/69 75/69/68
f 78/71/20 29/28/25 79/72/18
f 79/72/18 29/28/25 80/73/54
f 29/28/25 81/39/71 80/73/54
f 80/73/54 81/39/71 82/38/53
f 81/39/71 38/36/34 82/38/53
f 82/38/53 38/36/34 83/74/72
f 38/36/34 36/34/32 83/74/72
f 83/74/72 36/34/32 40/37/36
f 30/29/26 28/27/24 49/45/45
f 49/45/45 28/27/24 47/43/43
f 28/27/24 23/23/22 47/43/43
f 47/43/43 23/23/22 45/41/41
f 23/23/22 84/25/73 45/41/41
f 45/41/41 84/25/73 85/75/6
f 84/25/73 22/22/4 85/75/6
f 86/76/74 87/77/75 12/12/12
f 86/76/74 88/78/76 87/77/75
f 86/76/74 89/79/77 88/78/76
f 86/76/74 16/16/16 89/79/77
f 86/76/74 14/14/14 16/16/16
f 86/76/74 12/12/12 14/14/14
f 90/80/78 12/12/12 87/77/75
f 90/80/78 91/81/79 12/12/12
f 90/80/78 50/46/37 91/81/79
f 90/80/78 51/47/46 50/46/37
f 90/80/78 54/50/48 51/47/46
f 90/80/78 92/77/80 54/50/48
f 43/28/39 93/73/79 42/39/38
f 43/28/39 94/72/10 93/73/79
f 43/28/39 95/71/8 94/72/10
f 43/28/39 85/75/6 95/71/8
f 43/28/39 45/41/41 85/75/6
f 96/82/81 97/83/82 98/84/81
f 98/84/81 97/83/82 99/85/83
f 97/83/82 100/86/84 99/85/83
f 99/85/83 100/86/84 101/87/84
f 100/86/84 102/88/85 101/87/84
f 103/84/86 104/83/87 105/89/88
f 105/89/88 104/83/87 106/90/89
f 104/83/87 107/86/90 106/90/89
f 106/90/89 107/86/90 108/91/91
f 107/86/90 109/92/92 108/91/91
f 7/7/7 19/19/19 9/9/9
f 9/9/9 19/19/19 11/11/11
f 19/19/19 17/17/17 11/11/11
f 11/11/11 17/17/17 15/15/15
f 89/79/77 16/16/16 58/54/52
f 58/54/52 16/16/16 60/56/54
f 16/16/16 18/18/18 60/56/54
f 34/30/30 32/31/28 44/40/40
f 44/40/40 32/31/28 46/42/42
f 32/31/28 48/44/44 46/42/42
f 92/77/80 110/93/93 54/50/48
f 54/50/48 110/93/93 56/52/50
f 110/93/93 58/54/52 56/52/50
f 38/36/34 81/39/71 31/30/27
f 31/30/27 81/39/71 29/28/25
f 59/55/53 111/94/72 57/53/51
f 57/53/51 111/94/72 55/51/49
f 112/95/47 113/96/49 114/50/36
f 114/50/36 113/96/49 115/97/72
f 39/33/35 33/32/29 116/98/94
f 116/98/94 33/32/29 35/33/31
f 78/71/20 27/26/21 29/28/25
f 84/25/73 23/23/22 22/22/4
f 26/25/23 23/23/22 28/27/24
f 41/38/37 42/39/38 93/73/79
f 12/12/12 91/81/79 10/10/10
f 15/15/15 13/13/13 11/11/11
f 62/58/56 64/60/58 63/59/57
f 67/63/61 68/64/62 66/62/60
f 100/86/84 117/99/85 102/88/85
f 109/92/92 107/86/90 118/99/95
# Vertices: 118, normals: 95, texture coordinates: 99, faces: 153
